<?xml version="1.0" encoding="UTF-8"?>
<svg width="98px" height="96px" viewBox="0 0 98 96" version="1.1" xmlns="http://www.w3.org/2000/svg" xmlns:xlink="http://www.w3.org/1999/xlink">
    <title>github-logo</title>
    <g stroke="none" stroke-width="1" fill="none" fill-rule="evenodd">
        <g fill="#FFFFFF" fill-rule="nonzero">
            <path d="M48.854,0 C21.839,0 0,22 0,49.217 C0,70.973 13.993,89.389 33.405,95.904 C35.832,96.393 36.721,94.887 36.721,93.574 C36.721,92.381 36.641,88.979 36.641,84.785 C23.051,87.764 20.145,78.979 20.145,78.979 C17.939,73.262 14.713,71.756 14.713,71.756 C10.288,68.697 15.033,68.697 15.033,68.697 C19.937,68.938 22.544,73.666 22.544,73.666 C26.969,81.158 34.024,79.168 36.881,77.855 C37.281,74.635 38.57,72.404 39.858,71.146 C29.029,69.889 17.6,65.613 17.6,46.654 C17.6,41.258 19.537,36.904 22.624,33.521 C22.144,32.288 20.447,27.211 23.133,20.436 C23.133,20.436 27.318,19.123 36.721,25.497 C40.586,24.426 44.851,23.891 49.117,23.891 C53.384,23.891 57.648,24.426 61.513,25.497 C70.916,19.123 75.101,20.436 75.101,20.436 C77.787,27.211 76.09,32.288 75.61,33.521 C78.697,36.904 80.634,41.258 80.634,46.654 C80.634,65.613 69.205,69.889 58.376,71.146 C60.144,72.808 61.673,75.867 61.673,80.541 C61.673,87.088 61.593,91.863 61.593,93.574 C61.593,94.887 62.482,96.393 64.909,95.904 C84.321,89.389 98.314,70.973 98.314,49.217 C98.314,22 76.475,0 49.46,0 L48.854,0 Z"></path>
        </g>
    </g>
</svg>
